<svg role="img" data-testid="icon" aria-label="brand-bear" width="33" height="15" viewBox="0 0 400 185" fill="none" xmlns="http://www.w3.org/2000/svg">
  <path class="Iconography_dark-white__wAdEf" d="M55.769 16.7093C55.6949 16.4529 55.6152 16.1903 55.534 15.9228C55.3451 15.3002 55.1482 14.6513 54.9957 13.9941C53.873 9.22071 56.7725 5.85205 61.6664 6.26226C66.3934 6.66107 70.1855 8.84376 73.3452 12.3287C73.9202 12.9623 74.978 13.5043 75.8166 13.5056C85.3437 13.5136 94.8417 13.1283 104.208 11.1346C110.452 9.80716 116.361 7.52752 122.088 4.77213C129.644 1.13711 137.586 0.306902 145.859 0.92399C157.532 1.78789 167.913 6.29747 178.192 11.4407C184.517 14.607 191.018 17.5168 197.659 19.9334C204.204 22.3118 211.159 22.7565 218.139 22.4985C221.082 22.3881 224.025 22.2679 226.967 22.1476L226.969 22.1476C236.472 21.7592 245.977 21.3708 255.483 21.3152C270.837 21.2275 286.124 22.1819 301.14 25.9356C313.886 29.1242 325.733 34.1362 336.159 42.2311C345.105 49.1723 352.032 57.7752 357.029 67.9318C357.538 68.9672 358.017 70.018 358.497 71.0692L358.497 71.0702L358.498 71.072C358.904 71.9626 359.31 72.8534 359.735 73.7353C360.81 75.9488 361.155 78.2343 360.481 80.6235C359.681 83.4701 359.883 85.9003 361.905 88.4511C370.441 99.1848 377.329 111.006 383.873 123.022C389.753 133.821 395.368 144.751 398.853 156.619C398.87 156.674 398.891 156.729 398.912 156.784C400.756 161.713 400.463 166.19 396.423 170.069C394.908 171.525 393.447 173.037 391.985 174.55L391.983 174.552C390.163 176.436 388.343 178.319 386.419 180.094C383.722 182.579 380.391 183.82 376.627 183.809C368.3 183.785 359.973 183.776 351.647 183.768H351.646C346.077 183.762 340.509 183.757 334.942 183.746C332.416 183.743 331.819 182.786 332.889 180.499C334.884 176.232 337.788 173.04 342.622 171.911C344.142 171.555 345.615 171.011 347.09 170.467C347.838 170.191 348.586 169.915 349.34 169.663C351.481 168.948 351.811 167.931 350.22 166.365C349.773 165.925 349.326 165.483 348.88 165.041L348.858 165.02C346.357 162.547 343.855 160.072 341.188 157.79C329.758 147.995 316.714 140.964 302.751 135.53C291.265 131.06 279.41 127.958 267.271 125.907C253.702 123.616 240.027 122.696 226.279 123.222C223.181 123.342 220.089 123.658 216.996 123.973C215.097 124.167 213.197 124.361 211.296 124.509C209.748 124.63 209.879 125.556 210.064 126.567C210.412 128.484 210.781 130.397 211.15 132.311C211.906 136.233 212.662 140.155 213.237 144.104C214.409 152.2 215.4 160.33 216.229 168.469C216.547 171.604 216.352 174.816 214.842 177.775C213.71 179.997 212.079 181.822 209.66 182.281C205.892 182.992 202.042 183.603 198.219 183.659C188.375 183.799 178.527 183.789 168.68 183.78C165.727 183.777 162.774 183.774 159.821 183.775C156.124 183.777 155.405 182.571 157.313 179.381C159.674 175.419 162.981 172.647 167.55 171.443C169.032 171.054 170.472 170.506 171.912 169.958L171.912 169.958C172.517 169.727 173.122 169.497 173.73 169.279C174.747 168.912 175.182 168.261 174.879 167.131C171.402 154.248 166.035 142.236 158.154 131.447C149.185 119.162 137.908 109.39 124.838 101.687C111.661 93.9221 97.6856 88.1498 82.4988 85.7991C79.1103 85.2743 75.6678 85.1139 72.2256 84.9535C70.6628 84.8806 69.0999 84.8078 67.5422 84.7009C66.1104 84.6018 65.3031 85.0897 65.1826 86.6936C65.0732 88.1205 64.7623 89.5671 64.2875 90.9163C63.9931 91.7513 63.361 92.8465 62.6534 93.0543C61.966 93.2567 60.7913 92.687 60.1669 92.1C54.661 86.9403 48.6467 82.5295 41.1607 80.9653C38.8032 80.4728 36.3076 80.6025 33.8236 80.7316C32.9493 80.777 32.0766 80.8224 31.2117 80.8405C29.5295 80.874 27.8472 80.9477 26.1648 81.0213L26.1641 81.0213C23.9333 81.119 21.7023 81.2166 19.4708 81.2207C17.2028 81.2263 15.9446 80.0827 15.441 78.1291C14.9758 76.3111 15.602 74.9585 17.6966 73.7597C18.9428 73.046 20.2179 72.3813 21.4935 71.7164L21.4938 71.7163C22.5204 71.1811 23.5474 70.6458 24.5597 70.0847C25.5574 69.5268 26.5331 68.8886 27.3952 68.1419C27.6708 67.9033 27.807 67.5012 27.9431 67.0992C28.0052 66.9157 28.0674 66.7322 28.1427 66.5643C27.9585 66.527 27.7688 66.4681 27.579 66.4093C27.1675 66.2817 26.7553 66.1539 26.3979 66.2449C25.4075 66.4999 24.436 66.8307 23.4641 67.1617L23.4635 67.1618C22.8535 67.3696 22.2433 67.5773 21.6282 67.7665C20.9808 67.9653 20.334 68.1681 19.687 68.371L19.6866 68.3711C17.5312 69.0471 15.3735 69.7237 13.1827 70.2547C11.8112 70.5886 10.2825 70.6735 8.89818 70.4369C7.59496 70.2136 6.12841 69.691 5.20939 68.8075C3.45912 67.1244 1.96986 65.1425 0.516389 63.18C-0.509907 61.7938 0.0542847 59.9273 1.67154 58.8403C2.92455 58.001 4.17733 57.1613 5.4301 56.3217L5.44567 56.3112C12.5116 51.5753 19.5775 46.8395 26.6848 42.1646C28.5663 40.9252 29.7558 39.4588 29.8404 37.1587C29.9396 34.3783 31.7788 32.6044 33.7557 31.1153C38.4996 27.5486 43.3107 24.051 48.2267 20.7279C49.8145 19.6523 51.5524 18.8017 53.3256 17.9338C54.1364 17.537 54.9545 17.1365 55.769 16.7093Z" fill="white"/>
  <path class="Iconography_dark-white__wAdEf" d="..." fill="white"/>
  <path class="Iconography_dark-white__wAdEf" d="..." fill="white"/>
</svg>
